# This file uses centimeters as units for non-parametric coordinates.

mtllib testLow1.mtl
g default
v 146.467302 146.467302 -146.467302
v 353.532698 146.467302 -146.467302
v 146.467302 353.532698 -146.467302
v 353.532698 353.532698 -146.467302
v 146.467302 353.532698 -353.532698
v 353.532698 353.532698 -353.532698
v 146.467302 146.467302 -353.532698
v 353.532698 146.467302 -353.532698
vt 0.000000 0.000000
vt 1.000000 0.000000
vt 0.000000 1.000000
vt 1.000000 1.000000
vt 0.000000 2.000000
vt 1.000000 2.000000
vt 0.000000 3.000000
vt 1.000000 3.000000
vt 0.000000 4.000000
vt 1.000000 4.000000
vt 2.000000 0.000000
vt 2.000000 1.000000
vt -1.000000 0.000000
vt -1.000000 1.000000
vn 0.000000 0.000000 1.000000
vn 0.000000 0.000000 1.000000
vn 0.000000 0.000000 1.000000
vn 0.000000 0.000000 1.000000
vn 0.000000 1.000000 0.000000
vn 0.000000 1.000000 0.000000
vn 0.000000 1.000000 0.000000
vn 0.000000 1.000000 0.000000
vn 0.000000 0.000000 -1.000000
vn 0.000000 0.000000 -1.000000
vn 0.000000 0.000000 -1.000000
vn 0.000000 0.000000 -1.000000
vn 0.000000 -1.000000 0.000000
vn 0.000000 -1.000000 0.000000
vn 0.000000 -1.000000 0.000000
vn 0.000000 -1.000000 0.000000
vn 1.000000 0.000000 0.000000
vn 1.000000 0.000000 0.000000
vn 1.000000 0.000000 0.000000
vn 1.000000 0.000000 0.000000
vn -1.000000 0.000000 0.000000
vn -1.000000 0.000000 0.000000
vn -1.000000 0.000000 0.000000
vn -1.000000 0.000000 0.000000
s 1
g pCube3
usemtl initialShadingGroup
f 1/1/1 2/2/2 3/3/3
f 2/2/2 4/4/4 3/3/3
s 2
f 3/3/5 4/4/6 5/5/7
f 4/4/6 6/6/8 5/5/7
s 3
f 5/5/9 6/6/10 7/7/11
f 6/6/10 8/8/12 7/7/11
s 4
f 7/7/13 8/8/14 1/9/15
f 8/8/14 2/10/16 1/9/15
s 5
f 2/2/17 8/11/18 4/4/19
f 8/11/18 6/12/20 4/4/19
s 6
f 7/13/21 1/1/22 5/14/23
f 1/1/22 3/3/24 5/14/23
